<svg id="Capa_1" enable-background="new 0 0 511.998 511.998" height="512" viewBox="0 0 511.998 511.998" width="512" xmlns="http://www.w3.org/2000/svg"><g><path d="m394.953 314.861h-4.441l6.712-91.133h24.11c16.954 0 30.697 13.744 30.697 30.697v3.358c0 31.523-25.555 57.078-57.078 57.078z" fill="#f9a58e"/><path d="m117.045 314.861h4.442l-6.712-91.133h-24.11c-16.954 0-30.697 13.744-30.697 30.697v3.358c-.001 31.523 25.554 57.078 57.077 57.078z" fill="#eaac9d"/><path d="m329.063 447.767v-26.122c-25.614 17.521-53.9 27.554-73.064 27.554s-47.45-10.033-73.064-27.555v26.123c0 14.559-8.35 27.827-21.476 34.125l-30.88 14.817c-3.929 1.885-2.586 7.789 1.772 7.789h247.296c4.358 0 5.701-5.903 1.772-7.789l-30.88-14.817c-13.126-6.299-21.476-19.567-21.476-34.125z" fill="#ffcbbe"/><path d="m399.079 198.509c6.125-83.161-59.695-154.006-143.081-154.006s-149.205 70.845-143.081 154.006l9.755 132.459c5.143 69.834 91.237 118.23 133.326 118.23s128.182-48.396 133.326-118.23c.001 0 9.756-132.459 9.755-132.459z" fill="#ffcbbe"/><path d="m299.304 51.144c39.235 28.045 63.61 75.29 59.775 127.365 0 0-9.755 132.459-9.755 132.459-5.143 69.834-91.236 118.23-133.326 118.23-8.735 0-19.366-2.085-30.775-6.013 24.997 16.567 52.181 26.013 70.775 26.013 42.089 0 128.182-48.396 133.326-118.23 0 0 9.755-132.459 9.755-132.459 5.014-68.081-38.189-127.906-99.775-147.365z" fill="#eaac9d"/><path d="m320.43 19.734c-.262-.623-.995-.89-1.596-.581-7.813 4.018-54.86 29.785-71.536 75.602-3.749 10.301-5.671 20.812-6.359 31.01 9.575 21.649 12.358 43.986 13.052 58.38.995-20.61 6.269-57.501 29.633-85.345 13.822-16.472 31.861-27.26 48.457-34.267-2.825-22.657-9.75-40.271-11.651-44.799z" fill="#e490b7"/><path d="m348.3 153.07c31.341-37.35 30.132-90.978 29.705-99.754-.033-.675-.63-1.177-1.301-1.092-8.716 1.104-61.739 9.226-93.08 46.576-29.315 34.936-30.152 84.111-29.789 97.505h18.813c20.515-5.037 53.499-16.835 75.652-43.235z" fill="#efa5c3"/><path d="m378.005 53.316c-.033-.675-.63-1.177-1.301-1.092-4.52.572-20.954 3.032-40.101 10.476-2.694 20.793-9.867 48.397-28.303 70.369-15.089 17.982-35.203 29.189-52.979 36.1-1.59 12.269-1.62 22.166-1.485 27.136h18.813c20.515-5.038 53.499-16.835 75.652-43.236 31.34-37.349 30.131-90.977 29.704-99.753z" fill="#e490b7"/><path d="m224.358 98.801c-31.341-37.35-84.363-45.472-93.08-46.576-.671-.085-1.268.417-1.301 1.092-.427 8.776-1.635 62.403 29.705 99.754 22.153 26.4 55.137 38.198 75.652 43.236h18.812c.364-13.395-.474-62.57-29.788-97.506z" fill="#efa5c3"/><path d="m224.358 98.801c-17.279-20.592-41.148-32.3-60.549-38.845 7.355 5.26 14.373 11.485 20.549 18.845 21.241 25.314 27.531 58.105 29.246 79.342.79 9.782-6.901 18.163-16.715 18.163h-1.555c-4.513-1.108-9.63-2.544-15.103-4.39 19.026 13.607 40.308 20.757 55.103 24.39h18.812c.364-13.394-.474-62.569-29.788-97.505z" fill="#e490b7"/><path d="m159.682 153.07c-2.848-3.394-5.427-6.923-7.763-10.541-5.181 11.814-8.279 24.461-9.147 37.527-.585 8.794 6.4 16.25 15.213 16.25h77.349c-20.515-5.038-53.499-16.836-75.652-43.236z" fill="#86f1a7"/><path d="m143.084 176.306c-.124 1.246-.228 2.496-.312 3.75-.585 8.794 6.4 16.25 15.213 16.25h77.349c-13.115-3.221-31.327-9.205-48.546-20z" fill="#80e29d"/><path d="m358.364 138.807c-2.912 4.922-6.246 9.713-10.064 14.263-22.153 26.4-55.137 38.198-75.652 43.236h81.365c8.813 0 15.798-7.456 15.213-16.25-.961-14.448-4.647-28.384-10.862-41.249z" fill="#80e29d"/><path d="m240.939 125.766c.688-10.198 2.609-20.709 6.359-31.01 1.879-5.162 4.143-10.07 6.694-14.721-20.086-36.626-57.91-57.316-64.842-60.882-.601-.309-1.334-.042-1.596.581-1.902 4.528-8.826 22.141-11.652 44.799 16.596 7.008 34.635 17.795 48.457 34.267 7.052 8.405 12.456 17.634 16.592 26.99-.005-.008-.009-.016-.012-.024z" fill="#df75a5"/><path d="m254.84 7.87c-.459-.496-1.24-.496-1.699 0-3.336 3.604-15.867 17.788-26.271 38.112 9.826 9.129 19.688 20.5 27.12 34.053 7.432-13.553 17.294-24.925 27.12-34.053-10.403-20.325-22.934-34.508-26.27-38.112z" fill="#dd5790"/><g fill="#222221"><path d="m421.333 216.228h-16.038l1.264-17.168c2.516-34.161-6.695-68.239-25.976-96.37 5.623-23.512 5.205-43.723 4.913-49.742-.248-5.035-4.735-8.797-9.736-8.164-5.23.663-20.015 2.959-37.68 9.344-3.373-18.811-8.913-32.956-10.736-37.298-1.952-4.645-7.451-6.653-11.941-4.347-4.498 2.314-17.708 9.553-32.219 21.659-9.601-16.518-19.643-27.911-22.844-31.372-3.415-3.682-9.271-3.706-12.703.005-3.198 3.455-13.247 14.856-22.856 31.395-14.722-12.287-28.07-19.56-32.206-21.688-4.483-2.304-9.984-.301-11.938 4.347-1.822 4.338-7.361 18.474-10.735 37.289-17.775-6.412-32.664-8.698-37.682-9.334-4.979-.631-9.487 3.106-9.735 8.168-.311 6.388-.765 28.777 6.024 54.133-17.512 27.504-25.483 59.227-23.071 91.976l1.264 17.168h-16.037c-21.063 0-38.197 17.135-38.197 38.197v3.357c0 34.761 27.607 63.196 62.048 64.529l.678 9.207c1.555 21.102 9.902 41.48 24.812 60.568 2.554 3.271 7.271 3.839 10.527 1.295 3.265-2.55 3.844-7.264 1.295-10.527-13.05-16.707-20.342-34.35-21.675-52.438-11.22-152.353 7.407 100.57-9.755-132.459-1.859-25.255 3.134-49.83 14.505-71.919 2.394 5.782 5.234 11.552 8.603 17.169-4.62 11.578-7.382 23.786-8.218 36.35-.87 13.104 9.554 24.246 22.696 24.246h196.028c13.13 0 23.569-11.131 22.696-24.246-.934-14.063-4.267-27.63-9.915-40.389 3.148-5.731 5.779-11.584 7.976-17.413 12.858 23.068 18.788 49.605 16.83 76.201-14.126 191.815-7.408 100.585-9.755 132.459-4.598 62.426-83.458 111.28-125.847 111.28-24.648 0-58.038-16.815-80.028-34.567-3.222-2.603-7.944-2.099-10.547 1.125-2.602 3.223-2.099 7.944 1.125 10.547 2.886 2.33 5.855 4.581 8.887 6.745v22.219c0 11.603-6.76 22.344-17.22 27.363l-30.882 14.817c-4.912 2.357-7.499 7.714-6.29 13.027s5.858 9.023 11.308 9.023h247.296c5.448 0 10.098-3.711 11.307-9.023s-1.378-10.67-6.291-13.027l-30.88-14.817c-10.461-5.02-17.221-15.76-17.221-27.363v-22.258c31.022-22.241 57.373-55.04 60.242-93.989l.678-9.207c34.441-1.333 62.048-29.768 62.048-64.529v-3.357c.001-21.062-17.134-38.197-38.196-38.197zm-353.865 41.555v-3.357c0-12.791 10.406-23.197 23.197-23.197h17.142l5.597 76c-25.643-1.871-45.936-23.333-45.936-49.446zm248.596-228.497c2.425 6.842 5.723 17.67 7.794 30.683-2.486 1.152-4.991 2.387-7.502 3.712-3.663 1.934-5.066 6.47-3.134 10.134 1.934 3.662 6.469 5.063 10.134 3.134 18.509-9.766 37.106-14.264 47.259-16.157-.202 16.868-3.399 58.067-28.061 87.458-20.957 24.976-53.002 36.08-70.823 40.557h-10.074c-.031-1.476-.083-3.068-.163-4.764 1.596-32.126 11.496-65.367 34.848-87.88 2.982-2.875 3.069-7.623.194-10.604-2.874-2.982-7.621-3.07-10.604-.194-15.618 15.057-25.702 33.613-31.941 54.126-1.507-4.955-3.302-9.986-5.435-14.999.797-9.666 2.742-18.798 5.789-27.169 13.128-36.071 47.221-59.438 61.719-68.037zm-62.073-10.966c4.617 5.597 11.423 14.645 17.824 26.168-6.244 6.212-12.377 13.3-17.831 21.26-5.452-7.944-11.588-15.025-17.832-21.233 6.407-11.539 13.219-20.596 17.839-26.195zm-62.065 10.941c20.952 12.311 41.096 30.136 53.511 50.927-3.859 7.685-6.576 15.179-8.507 22.833-12.998-19.147-31.3-33.11-52.803-43.07 2.074-13.025 5.374-23.854 7.799-30.69zm-41.671 151.293c.508-7.632 1.827-15.113 3.938-22.36.49.579.983 1.152 1.482 1.718 2.739 3.107 7.479 3.405 10.586.666 3.107-2.74 3.405-7.479.666-10.586-20.66-23.447-29.188-58.018-29.56-89.188 16.583 3.13 56.589 13.434 81.245 42.818 18.347 21.864 26.462 51.965 27.876 80.42-.08 1.696-.132 3.288-.163 4.764h-10.074c-11.447-2.873-28.077-8.271-43.92-17.893-3.537-2.147-8.152-1.022-10.304 2.519-2.149 3.54-1.022 8.153 2.519 10.304 3.008 1.826 6.037 3.513 9.054 5.07h-35.616c-4.474-.001-8.027-3.777-7.729-8.252zm211.487 0c.297 4.468-3.245 8.251-7.729 8.251h-39.526c16.478-8.522 31.014-19.767 42.206-34.197 2.764 8.349 4.457 17.033 5.049 25.946zm-14.447 308.099 17.39 8.345h-217.372l17.391-8.345c15.632-7.5 25.731-23.549 25.731-40.887v-12.51c22.681 13.274 46.943 21.441 65.563 21.441 17.874 0 42.171-7.72 65.563-21.443v12.512c.001 17.338 10.102 33.387 25.734 40.887zm97.235-230.87c0 26.114-20.293 47.575-45.937 49.445l5.597-76h17.142c12.791 0 23.197 10.406 23.197 23.197v3.358z"/><path d="m236.027 238.286h-59.765c-4.143 0-7.5 3.357-7.5 7.5s3.357 7.5 7.5 7.5h59.765c4.143 0 7.5-3.357 7.5-7.5s-3.357-7.5-7.5-7.5z"/><path d="m283.471 305.107v-39.35c0-6.877 5.595-12.472 12.472-12.472h39.793c4.143 0 7.5-3.357 7.5-7.5s-3.357-7.5-7.5-7.5h-39.793c-15.147 0-27.472 12.324-27.472 27.472v39.35c0 6.877-5.595 12.472-12.472 12.472-4.143 0-7.5 3.357-7.5 7.5s3.357 7.5 7.5 7.5c15.147 0 27.472-12.324 27.472-27.472z"/><path d="m210.455 369.424c-3.704-1.857-8.211-.361-10.066 3.342-1.857 3.702-.361 8.209 3.342 10.066l6.276 3.148c28.799 14.446 63.18 14.448 91.983 0l6.277-3.148c3.703-1.857 5.199-6.364 3.342-10.066-1.857-3.703-6.361-5.198-10.066-3.342l-6.278 3.148c-24.586 12.334-53.944 12.334-78.532 0z"/></g></g></svg>