<svg height="512" viewBox="0 0 58 58" width="512" xmlns="http://www.w3.org/2000/svg"><g id="Page-1" fill="none" fill-rule="evenodd"><g id="086---Edit-File" fill-rule="nonzero"><path id="Rectangle-path" d="m45.05 18.192h10v5.515h-10z" fill="#95a5a5" transform="matrix(.707 .707 -.707 .707 29.473 -29.255)"/><path id="Shape" d="m44 14v-10c0-2.209139-1.790861-4-4-4h-35l-5 23v31c0 2.209139 1.790861 4 4 4h36c2.209139 0 4-1.790861 4-4z" fill="#f0c419"/><path id="Shape" d="m5 0 7.341 6.007c.910431.74520829 1.4466149 1.85344064 1.4658808 3.02981165.0192658 1.17637105-.4803406 2.30156685-1.3658808 3.07618835l-12.441 10.887z" fill="#f3d55b"/><path id="Shape" d="m4 28c-.55228475 0-1-.4477153-1-1v-2c0-.5522847.44771525-1 1-1s1 .4477153 1 1v2c0 .5522847-.44771525 1-1 1z" fill="#f3d55b"/><path id="Shape" d="m4 50c-.55228475 0-1-.4477153-1-1v-18c0-.5522847.44771525-1 1-1s1 .4477153 1 1v18c0 .5522847-.44771525 1-1 1z" fill="#f3d55b"/><g fill="#e57e25"><path id="Shape" d="m20 11h-2c-.5522847 0-1-.4477153-1-1 0-.55228475.4477153-1 1-1h2c.5522847 0 1 .44771525 1 1 0 .5522847-.4477153 1-1 1z"/><path id="Shape" d="m38 11h-14c-.5522847 0-1-.4477153-1-1 0-.55228475.4477153-1 1-1h14c.5522847 0 1 .44771525 1 1 0 .5522847-.4477153 1-1 1z"/><path id="Shape" d="m18 17h-4c-.5522847 0-1-.4477153-1-1s.4477153-1 1-1h4c.5522847 0 1 .4477153 1 1s-.4477153 1-1 1z"/><path id="Shape" d="m38 17h-16c-.5522847 0-1-.4477153-1-1s.4477153-1 1-1h16c.5522847 0 1 .4477153 1 1s-.4477153 1-1 1z"/></g><path id="Shape" d="m22 50h-8c-.5522847 0-1-.4477153-1-1s.4477153-1 1-1h8c.5522847 0 1 .4477153 1 1s-.4477153 1-1 1z" fill="#3f5c6c"/><path id="Shape" d="m10 50h-2c-.55228475 0-1-.4477153-1-1s.44771525-1 1-1h2c.5522847 0 1 .4477153 1 1s-.4477153 1-1 1z" fill="#3f5c6c"/><path id="Shape" d="m48.64 22.37-3.54-3.54-20.51 20.5 3.54 3.54 3.54 3.54 20.5-20.51z" fill="#3b97d3"/><path id="Shape" d="m52.17 25.9-20.5 20.51-3.54-3.54 12.73-12.73 7.78-7.77z" fill="#2980ba"/><path id="Shape" d="m31.67 46.41-5.87 2.2-3.39 1.27c-.3680509.1398584-.7839146.0507302-1.0623224-.2276776s-.367536-.6942715-.2276776-1.0623224l1.27-3.39 2.2-5.87z" fill="#f9eab0"/><path id="Shape" d="m51.5864665 14.413795h4c1.6568542 0 3 1.3431458 3 3v3h-10v-3c0-1.6568542 1.3431457-3 3-3z" fill="#fb7b76" transform="matrix(.707 .707 -.707 .707 28.009 -32.791)"/><path id="Shape" d="m25.8 48.61-3.39 1.27c-.3680509.1398584-.7839146.0507302-1.0623224-.2276776s-.367536-.6942715-.2276776-1.0623224l1.27-3.39c1.6459328.4771833 2.9328167 1.7640672 3.41 3.41z" fill="#35495e"/></g></g></svg>