<svg height="512pt" viewBox="0 0 512 512" width="512pt" xmlns="http://www.w3.org/2000/svg" xmlns:xlink="http://www.w3.org/1999/xlink"><linearGradient id="linear0" gradientUnits="userSpaceOnUse" x1="0" x2="512" y1="256" y2="256"><stop offset="0" stop-color="#80d8ff"/><stop offset="1" stop-color="#ea80fc"/></linearGradient><path d="m256 0c-141.484375 0-256 114.496094-256 256 0 141.484375 114.496094 256 256 256 141.484375 0 256-114.496094 256-256 0-141.484375-114.496094-256-256-256zm-98.972656 448.09375c-14.574219-7.527344-28.332032-16.761719-41.027344-27.601562v-110.160157c0-32.527343 26.460938-58.992187 58.988281-59h.011719.011719c12.746093.003907 24.832031 4.046875 34.765625 11.304688-16.140625 13.339843-26.445313 33.503906-26.445313 56.027343 0 18.707032 7.109375 35.78125 18.761719 48.671876-26.539062 17.296874-44.3125 46.964843-45.066406 80.757812zm-14.695313-269.425781c0-18.015625 14.65625-32.667969 32.667969-32.667969s32.667969 14.652344 32.667969 32.667969c0 18.007812-14.648438 32.660156-32.65625 32.667969-.003907 0-.007813 0-.011719 0s-.007812 0-.011719 0c-18.007812-.011719-32.65625-14.660157-32.65625-32.667969zm172.667969 285.207031c-18.957031 5.351562-38.765625 8.125-59 8.125s-40.042969-2.773438-59-8.125v-13.542969c0-32.527343 26.460938-58.992187 58.988281-59h.011719.011719c32.527343.007813 58.988281 26.472657 58.988281 59zm-91.667969-145.207031c0-18.015625 14.65625-32.667969 32.667969-32.667969s32.667969 14.652344 32.667969 32.667969c0 18.007812-14.648438 32.660156-32.65625 32.667969-.003907 0-.007813 0-.011719 0s-.007812 0-.011719 0c-18.007812-.011719-32.65625-14.660157-32.65625-32.667969zm172.667969 101.824219c-12.695312 10.839843-26.453125 20.074218-41.027344 27.601562-.753906-33.792969-18.527344-63.460938-45.066406-80.753906 11.652344-12.894532 18.761719-29.96875 18.761719-48.671875 0-22.527344-10.304688-42.691407-26.445313-56.027344 9.933594-7.257813 22.019532-11.304687 34.765625-11.304687h.011719.011719c32.527343.003906 58.988281 26.46875 58.988281 59zm-91.667969-241.824219c0-18.015625 14.65625-32.667969 32.667969-32.667969s32.667969 14.652344 32.667969 32.667969c0 18.007812-14.648438 32.660156-32.65625 32.667969-.003907 0-.007813 0-.011719 0s-.007812 0-.011719 0c-18.007812-.007813-32.65625-14.660157-32.65625-32.667969zm131.667969 196.847656v-65.183594c0-34.71875-17.96875-65.316406-45.09375-82.992187 11.652344-12.894532 18.761719-29.96875 18.761719-48.671875 0-40.070313-32.601563-72.667969-72.667969-72.667969s-72.667969 32.597656-72.667969 72.667969c0 18.675781 7.089844 35.722656 18.707031 48.609375-7.976562 5.1875-15.222656 11.550781-21.492187 18.957031-1.832031-.140625-3.679687-.234375-5.546875-.234375s-3.714844.09375-5.546875.234375c-6.269531-7.40625-13.515625-13.769531-21.492187-18.957031 11.617187-12.886719 18.707031-29.933594 18.707031-48.609375 0-40.070313-32.601563-72.667969-72.667969-72.667969s-72.667969 32.597656-72.667969 72.667969c0 18.703125 7.109375 35.777343 18.761719 48.671875-27.125 17.675781-45.09375 48.273437-45.09375 82.992187v65.183594c-23.421875-35.117187-36-76.347656-36-119.515625 0-119.378906 96.605469-216 216-216 119.378906 0 216 96.605469 216 216 0 43.167969-12.578125 84.398438-36 119.515625zm0 0" fill="url(#linear0)"/></svg>